<?xml version="1.0" encoding="UTF-8"?>
<svg id="Layer_1" data-name="Layer 1" xmlns="http://www.w3.org/2000/svg" xmlns:xlink="http://www.w3.org/1999/xlink" viewBox="0 0 480.87 173.38">
  <defs>
    <style>
      .cls-1 {
        fill: url(#linear-gradient-7);
      }

      .cls-2 {
        fill: url(#linear-gradient-5);
      }

      .cls-3 {
        fill: url(#linear-gradient-6);
      }

      .cls-4 {
        fill: url(#linear-gradient-4);
      }

      .cls-5 {
        fill: url(#linear-gradient-3);
      }

      .cls-6 {
        fill: url(#linear-gradient-2);
      }

      .cls-7 {
        fill: url(#linear-gradient);
      }

      .cls-8 {
        fill: #fff;
      }
    </style>
    <linearGradient id="linear-gradient" x1="80.5" y1="171.36" x2="80.5" y2="56.34" gradientUnits="userSpaceOnUse">
      <stop offset=".09" stop-color="#45c3f1"/>
      <stop offset=".46" stop-color="#3f75bb"/>
      <stop offset="1" stop-color="#3c55a5"/>
    </linearGradient>
    <linearGradient id="linear-gradient-2" x1="288.17" y1="145.63" x2="288.17" y2="42.88" xlink:href="#linear-gradient"/>
    <linearGradient id="linear-gradient-3" x1="229.2" y1="157.74" x2="229.2" y2="54.67" xlink:href="#linear-gradient"/>
    <linearGradient id="linear-gradient-4" x1="170.77" y1="143.51" x2="170.77" y2="67.49" xlink:href="#linear-gradient"/>
    <linearGradient id="linear-gradient-5" x1="441.37" y1="90.77" x2="441.37" y2="12.42" xlink:href="#linear-gradient"/>
    <linearGradient id="linear-gradient-6" x1="346.2" y1="108.5" x2="346.2" y2="32.03" xlink:href="#linear-gradient"/>
    <linearGradient id="linear-gradient-7" x1="395.04" y1="100.98" x2="395.04" y2="20.76" xlink:href="#linear-gradient"/>
  </defs>
  <g>
    <path class="cls-8" d="M31.45,93.06c1.25-.45,2.2-2.85,2.86-4.04,4.29-7.76,9.52-14.02,11.67-22.44.86-3.37,1.69-8.38,1.12-14.8,13.74-2.14,27.47-4.28,41.21-6.42-12.17,18.22-24.34,36.45-36.51,54.67l21.96,46.59v-57.2c0-.85-2.4-5.23-1.63-6.08l20.77-4.09,1.62.83,1.62,4.06c10.85-13.86,32.34-18.09,34.58,4.47,1.47,14.85-1,31.96-.03,47.09.22,3.45.66,8.57,2.46,11.33l-27.65,6.07c1.07-1.98,1.48-3.79,1.66-6.05.91-11.42,1.28-36.04-.01-47.11-.34-2.92-1.71-5.8-5.11-5.13-3.96.77-4.44,6.64-4.7,9.99-.78,10.05-.63,25.61,0,35.76.29,4.75,1.26,9.61,2.48,14.16l-52.08,9.73c.55-1.22.94-2.2.87-3.61-.24-5.19-9.34-25.41-12.19-30.93-.43-.84.43-1.54-1.69-1.15.05,2.29-2.36,3.88-2.9,5.64-.94,3.08-.87,23.28-.39,27.24.3,2.42,1.42,3.99,2.46,6.06l-30.92,5.68c.75-1.77,2.09-3.33,2.39-5.32.47-3.09.74-8.72.9-12.08,1.11-22.94,1.22-52.64,0-75.53-.1-1.92-.05-5.93-1.02-11.16-1.28-6.96-3.54-12.41-5.24-15.91,11.24-.89,22.48-1.78,33.72-2.68-.39,2.25-.75,4.57-1.07,6.96-.52,3.83-.91,7.53-1.2,11.07v24.33Z"/>
    <path class="cls-8" d="M286.13,118.21c.42,7.62-1.25,15.52,1.64,22.72l-27.66,4.87,1.66-6.04c-1.06-14.06-.39-29.07.21-44.03.6-15.04,5.73-28.23-.21-43.68-2.07-5.38-4.71-9.45-6.66-12.09,3.84-1.54,12.73-4.43,21.98-.95,1.63.61,3.09,1.36,4.38,2.16,2.18-1.57,12.31-8.54,23.19-5.27,0,0,5.86,1.67,9.56,6.04,16.23,19.21,3.9,77.9-28.09,76.28ZM291.56,56.73c-4.05.34-5.85,4.81-6.24,8.33-.79,7.11-.84,25.42-.01,32.47.2,1.69.55,3.45,2.13,4.39,7.25-2.41,9.63-11.66,10.68-18.42.8-5.18,1.84-27.49-6.56-26.78Z"/>
    <path class="cls-8" d="M225.1,153.09l-28.48,5.68,2.47-7.67c-1.79-27.63,2.26-57.97,0-85.26-.24-2.9-1.47-4.9-1.66-7.67l22.4-4.1,3.22,2.46c8.64-10.13,23.02-12.09,30.38.56,11.07,19.01,2.92,62.8-19.09,71.56-4.07,1.62-7.33,1.39-11.34,2.49-.72,7.35-.98,15.17,2.08,21.95ZM222.66,74.8c-1.86,10.53,1.38,26.21,0,37.32l2.03,2.1c7.37-.44,10.61-16.43,11.02-22.35.39-5.61.91-24.09-8.39-22.2-2.23.45-4.29,3.01-4.67,5.13Z"/>
    <path class="cls-8" d="M164.68,62.42c44.79-6.95,37.95,77.07-1.02,80.94-43.34,4.3-35.76-75.23,1.02-80.94ZM165.3,80.36c-4.74,0-6.67,12.73-6.94,16.32-.35,4.66-.67,28.56,6.14,28.56,4.85,0,6.67-13.46,6.94-17.13.34-4.58.48-27.75-6.14-27.75Z"/>
    <path class="cls-8" d="M478.49,28.37c-2.68-1.39-19.71-10.08-24.3-5.06-.61.67-1.44,2.06-1.06,3.3.85,2.72,6.49,1.22,13.3,4.13.94.4,8.26,3.65,12.12,11.4.25.5,1.55,2.69,1.98,5.96,2.37,18.1-8.14,32.14-25.35,37.06-9.29,2.66-16.38,1.71-25.84,1.41v-26.78l8.7,6.34c4.57,3.36,19.4,5.18,18.18-3.46-1.08-7.6-16.31-6.11-23.62-14.65-7.42-8.66-6.94-27.59,4.28-37.62,8.57-7.65,19.72-6.83,22.16-6.6h15.46c.16-.16.32-.32.48-.49,1.23-1.23,2.49-2.33,3.74-3.32-.08,9.46-.16,18.91-.24,28.37Z"/>
    <path class="cls-8" d="M354.76,85.47c8.09,7.23,14.75-2.5,20.05-7.83l6.26,9.33c-8.7,13.77-29.5,25.55-44.75,14.88-27.7-19.39-5.21-88.19,30.36-76.53,12.58,4.12,14.73,18.54,15.29,29.93l-31.3,22.78c-.17,1.44,2.91,6.39,4.09,7.45ZM347.16,63.85c1.1,1.01,11.89-8.13,12.66-10.51,1.24-3.89-1.17-13.11-6.36-12.09-6.3,1.24-8.44,17.34-6.29,22.6Z"/>
    <path class="cls-8" d="M429.55,8.98c-.88,8.55-1.77,17.1-2.65,25.65-8.89-.41-13.92,6.78-15.87,14.6-1.98,7.91-2.06,27.71-1.26,36.16.27,2.87,1.91,4.57,1.33,6.9l-27.32,5.63c-.14-2.3,1.38-3.73,1.65-6.06,1.93-16.74,10.04-39.95,0-60.91-1.21-2.52-3.34-6.45-6.94-10.86,9.22-2.44,18.44-4.89,27.66-7.33.79,2.36,1.58,4.73,2.36,7.09,1.42-1.81,3.56-4.11,6.62-6.15,5.75-3.83,11.5-4.57,14.42-4.73Z"/>
    <path class="cls-8" d="M291.56,56.73c8.4-.71,7.36,21.6,6.56,26.78-1.05,6.76-3.43,16-10.68,18.42-1.59-.94-1.94-2.7-2.13-4.39-.83-7.06-.78-25.37.01-32.47.39-3.52,2.19-7.99,6.24-8.33Z"/>
    <path class="cls-8" d="M222.66,74.8c.37-2.12,2.44-4.67,4.67-5.13,9.29-1.89,8.78,16.6,8.39,22.2-.42,5.92-3.66,21.92-11.02,22.35l-2.03-2.1c1.38-11.11-1.86-26.8,0-37.32Z"/>
    <path class="cls-8" d="M165.3,80.36c6.62,0,6.48,23.16,6.14,27.75-.27,3.67-2.09,17.13-6.94,17.13-6.81,0-6.49-23.9-6.14-28.56.27-3.59,2.2-16.32,6.94-16.32Z"/>
    <path class="cls-8" d="M347.16,63.85c-2.15-5.26-.01-21.36,6.29-22.6,5.19-1.02,7.61,8.21,6.36,12.09-.76,2.38-11.56,11.51-12.66,10.51Z"/>
  </g>
  <g>
    <path class="cls-7" d="M46.36,96.45c1.17-.42,2.05-2.66,2.67-3.77,3.54-6.39,8.16-14.31,10.88-20.93,1.28-3.1,2.74-5.77,2.48-9.25l29.5-6.15-26.56,46.59,20.48,43.45v-53.35c0-.79-2.24-4.88-1.52-5.67l19.37-3.81,1.51.78,1.51,3.79c10.12-12.92,30.16-16.87,32.25,4.17,1.37,13.85-.94,29.81-.02,43.92.21,3.22.61,7.99,2.29,10.57l-25.78,5.66c1-1.85,1.38-3.54,1.55-5.64.85-10.65,1.19-33.61-.01-43.94-.32-2.72-1.59-5.41-4.77-4.79-3.7.72-4.14,6.19-4.38,9.32-.73,9.38-.58,23.89,0,33.36.27,4.43,1.17,8.96,2.31,13.21l-48.57,9.08c.52-1.14.87-2.06.81-3.37-.23-4.84-8.71-23.7-11.37-28.85-.4-.78.4-1.43-1.57-1.07.05,2.13-2.2,3.62-2.7,5.26-.88,2.88-.81,21.72-.36,25.41.28,2.26,1.32,3.72,2.29,5.65l-28.84,5.3c.69-1.65,1.95-3.11,2.23-4.96.44-2.88.69-8.13.84-11.27,1.04-21.4,1.14-49.09,0-70.45-.13-2.52-.48-8.32-.95-10.41-.34-1.51-1.54-2.27-2.12-3.55l28.83-4.93c-.68.68-2.27,3.07-2.27,3.79v26.87Z"/>
    <path class="cls-6" d="M283.89,119.9c.4,7.1-1.16,14.48,1.53,21.19l-25.8,4.54,1.55-5.63c-1.98-26.23,2.5-56,0-81.81-.23-2.39-1.01-3.49-1.56-5.63,4.79.25,18.06-4.94,21.68-4.31.92.16,1.32,2.23,2.22,2.78,7.33-8.62,18.4-11.94,26.57-2.26,15.14,17.92,3.64,72.66-26.19,71.14ZM288.95,62.56c-3.78.32-5.46,4.48-5.82,7.77-.74,6.63-.78,23.7-.01,30.29.18,1.58.51,3.22,1.99,4.09,6.76-2.25,8.98-10.87,9.96-17.18.75-4.83,1.72-25.64-6.12-24.97Z"/>
    <path class="cls-5" d="M226.97,152.44l-26.56,5.3,2.31-7.15c-1.67-25.76,2.11-54.06,0-79.52-.22-2.71-1.37-4.57-1.55-7.15l20.9-3.82,3,2.3c8.06-9.45,21.47-11.28,28.34.52,10.32,17.73,2.72,58.57-17.8,66.74-3.79,1.51-6.84,1.29-10.57,2.32-.67,6.86-.91,14.15,1.94,20.47ZM224.7,79.42c-1.73,9.82,1.29,24.45,0,34.81l1.9,1.96c6.87-.41,9.89-15.32,10.28-20.85.37-5.23.84-22.47-7.82-20.71-2.08.42-4,2.81-4.35,4.78Z"/>
    <path class="cls-4" d="M170.62,67.87c41.77-6.49,35.39,71.88-.95,75.49-40.42,4.01-33.35-70.16.95-75.49ZM171.19,84.6c-4.42,0-6.22,11.87-6.48,15.22-.33,4.35-.63,26.63,5.73,26.63,4.52,0,6.22-12.55,6.48-15.98.32-4.27.45-25.88-5.72-25.88Z"/>
    <path class="cls-2" d="M460.71,34.39c-3.46-4.99-16.39-8.05-20.09-3-4.88,6.66,9.02,8.38,13.24,10.21,5.97,2.59,10.43,6.03,11.33,12.91,2.21,16.88-7.59,29.97-23.64,34.56-8.66,2.48-15.27,1.6-24.1,1.32v-24.97l8.11,5.91c4.26,3.13,18.1,4.83,16.96-3.23-.58-4.09-17.73-8.17-22.03-13.66-8.23-10.51.49-29.12,10.37-35.82,2.34-1.59,11.77-5.42,14.29-5.42h14.42c.23,0,.58-.96,1.14-.76v21.95Z"/>
    <path class="cls-3" d="M347.9,89.37c7.54,6.74,13.76-2.33,18.7-7.3l5.83,8.7c-8.11,12.84-27.51,23.83-41.74,13.87-25.83-18.08-4.86-82.25,28.32-71.38,11.73,3.84,13.74,17.29,14.26,27.91l-29.19,21.25c-.16,1.34,2.71,5.96,3.82,6.95ZM340.81,69.2c1.03.94,11.09-7.58,11.8-9.8,1.16-3.62-1.09-12.23-5.93-11.28-5.88,1.15-7.88,16.17-5.87,21.08Z"/>
    <path class="cls-1" d="M415.18,20.77v21.19c-8.29-.39-12.98,6.33-14.8,13.62-1.84,7.38-1.92,25.84-1.17,33.72.25,2.68,1.78,4.26,1.24,6.44l-25.48,5.25c-.13-2.14,1.29-3.48,1.54-5.65,1.63-14.13.88-42.08,0-56.81-.18-2.99-.92-5.36-1.6-8.2l21.29-5.01,2.28,8.32c2.79-6.69,8.89-13.14,16.71-12.86Z"/>
  </g>
</svg>